<?xml version="1.0" encoding="UTF-8" standalone="no"?>
<!DOCTYPE svg PUBLIC "-//W3C//DTD SVG 1.1//EN"
 "http://www.w3.org/Graphics/SVG/1.1/DTD/svg11.dtd">
<!-- Generated by graphviz version 15.0.0 (20260523.1842)
 -->
<!-- Title: FindEvil Pages: 1 -->
<svg width="1334pt" height="1184pt"
 viewBox="0.00 0.00 1334.00 1184.00" xmlns="http://www.w3.org/2000/svg" xmlns:xlink="http://www.w3.org/1999/xlink">
<g id="graph0" class="graph" transform="scale(1 1) rotate(0) translate(4 1179.5)">
<title>FindEvil</title>
<polygon fill="white" stroke="none" points="-4,4 -4,-1179.5 1330,-1179.5 1330,4 -4,4"/>
<g id="clust1" class="cluster">
<title>cluster_evidence</title>
<polygon fill="lightgrey" stroke="lightgrey" points="619,-1087.5 619,-1167.5 1131,-1167.5 1131,-1087.5 619,-1087.5"/>
<text xml:space="preserve" text-anchor="middle" x="875" y="-1150.2" font-family="Times,serif" font-size="14.00">Evidence Sources</text>
</g>
<g id="clust2" class="cluster">
<title>cluster_mcp</title>
<polygon fill="#ffcccc" stroke="#ffcccc" points="378,-716.25 378,-1068.5 1318,-1068.5 1318,-716.25 378,-716.25"/>
<text xml:space="preserve" text-anchor="middle" x="848" y="-1051.2" font-family="Times,serif" font-size="14.00">Custom SIFT MCP Server</text>
<text xml:space="preserve" text-anchor="middle" x="848" y="-1034.7" font-family="Times,serif" font-size="14.00">🔒 Architectural Guardrails</text>
</g>
<g id="clust3" class="cluster">
<title>cluster_agent</title>
<polygon fill="#ccccff" stroke="#ccccff" points="152,-370.75 152,-834.75 370,-834.75 370,-370.75 152,-370.75"/>
<text xml:space="preserve" text-anchor="middle" x="261" y="-817.45" font-family="Times,serif" font-size="14.00">Self&#45;Correcting Agent</text>
<text xml:space="preserve" text-anchor="middle" x="261" y="-800.95" font-family="Times,serif" font-size="14.00">🔄 Iteration Loop</text>
</g>
<g id="clust4" class="cluster">
<title>cluster_validation</title>
<polygon fill="#ccffcc" stroke="#ccffcc" points="8,-162.75 8,-544.25 144,-544.25 144,-162.75 8,-162.75"/>
<text xml:space="preserve" text-anchor="middle" x="76" y="-526.95" font-family="Times,serif" font-size="14.00">Evidence Validation</text>
<text xml:space="preserve" text-anchor="middle" x="76" y="-510.45" font-family="Times,serif" font-size="14.00">🛡️ Anti&#45;Hallucination</text>
</g>
<g id="clust5" class="cluster">
<title>cluster_obs</title>
<polygon fill="#ffffcc" stroke="#ffffcc" points="263,-8 263,-336.25 449,-336.25 449,-8 263,-8"/>
<text xml:space="preserve" text-anchor="middle" x="356" y="-318.95" font-family="Times,serif" font-size="14.00">Observability &amp; Audit</text>
<text xml:space="preserve" text-anchor="middle" x="356" y="-302.45" font-family="Times,serif" font-size="14.00">📊 Criterion #5</text>
</g>
<!-- disk -->
<g id="node1" class="node">
<title>disk</title>
<path fill="none" stroke="black" d="M699.12,-1135C699.12,-1135 638.88,-1135 638.88,-1135 632.88,-1135 626.88,-1129 626.88,-1123 626.88,-1123 626.88,-1107.5 626.88,-1107.5 626.88,-1101.5 632.88,-1095.5 638.88,-1095.5 638.88,-1095.5 699.12,-1095.5 699.12,-1095.5 705.12,-1095.5 711.12,-1101.5 711.12,-1107.5 711.12,-1107.5 711.12,-1123 711.12,-1123 711.12,-1129 705.12,-1135 699.12,-1135"/>
<text xml:space="preserve" text-anchor="middle" x="669" y="-1117.7" font-family="Arial" font-size="14.00">Disk Image</text>
<text xml:space="preserve" text-anchor="middle" x="669" y="-1101.95" font-family="Arial" font-size="14.00">disk.dd</text>
</g>
<!-- prefetch -->
<g id="node5" class="node">
<title>prefetch</title>
<path fill="none" stroke="black" d="M501.88,-1017.25C501.88,-1017.25 398.12,-1017.25 398.12,-1017.25 392.12,-1017.25 386.12,-1011.25 386.12,-1005.25 386.12,-1005.25 386.12,-989.75 386.12,-989.75 386.12,-983.75 392.12,-977.75 398.12,-977.75 398.12,-977.75 501.88,-977.75 501.88,-977.75 507.88,-977.75 513.88,-983.75 513.88,-989.75 513.88,-989.75 513.88,-1005.25 513.88,-1005.25 513.88,-1011.25 507.88,-1017.25 501.88,-1017.25"/>
<text xml:space="preserve" text-anchor="middle" x="450" y="-999.95" font-family="Arial" font-size="14.00">analyze_prefetch()</text>
<text xml:space="preserve" text-anchor="middle" x="450" y="-984.2" font-family="Arial" font-size="14.00">Execution History</text>
</g>
<!-- disk&#45;&gt;prefetch -->
<g id="edge1" class="edge">
<title>disk&#45;&gt;prefetch</title>
<path fill="none" stroke="black" d="M626.6,-1106.39C596.25,-1099.51 555.24,-1087.56 523,-1068.5 504.23,-1057.4 486.48,-1040.59 473.19,-1026.22"/>
<polygon fill="black" stroke="black" points="475.81,-1023.91 466.53,-1018.8 470.6,-1028.58 475.81,-1023.91"/>
</g>
<!-- mft -->
<g id="node6" class="node">
<title>mft</title>
<path fill="none" stroke="black" d="M667.62,-1017.25C667.62,-1017.25 544.38,-1017.25 544.38,-1017.25 538.38,-1017.25 532.38,-1011.25 532.38,-1005.25 532.38,-1005.25 532.38,-989.75 532.38,-989.75 532.38,-983.75 538.38,-977.75 544.38,-977.75 544.38,-977.75 667.62,-977.75 667.62,-977.75 673.62,-977.75 679.62,-983.75 679.62,-989.75 679.62,-989.75 679.62,-1005.25 679.62,-1005.25 679.62,-1011.25 673.62,-1017.25 667.62,-1017.25"/>
<text xml:space="preserve" text-anchor="middle" x="606" y="-999.95" font-family="Arial" font-size="14.00">extract_mft_timeline()</text>
<text xml:space="preserve" text-anchor="middle" x="606" y="-984.2" font-family="Arial" font-size="14.00">File System</text>
</g>
<!-- disk&#45;&gt;mft -->
<g id="edge2" class="edge">
<title>disk&#45;&gt;mft</title>
<path fill="none" stroke="black" d="M658.6,-1095.14C648.61,-1076.79 633.39,-1048.82 621.89,-1027.69"/>
<polygon fill="black" stroke="black" points="625,-1026.08 617.14,-1018.97 618.85,-1029.43 625,-1026.08"/>
</g>
<!-- memory -->
<g id="node2" class="node">
<title>memory</title>
<path fill="none" stroke="black" d="M824.38,-1135C824.38,-1135 741.62,-1135 741.62,-1135 735.62,-1135 729.62,-1129 729.62,-1123 729.62,-1123 729.62,-1107.5 729.62,-1107.5 729.62,-1101.5 735.62,-1095.5 741.62,-1095.5 741.62,-1095.5 824.38,-1095.5 824.38,-1095.5 830.38,-1095.5 836.38,-1101.5 836.38,-1107.5 836.38,-1107.5 836.38,-1123 836.38,-1123 836.38,-1129 830.38,-1135 824.38,-1135"/>
<text xml:space="preserve" text-anchor="middle" x="783" y="-1117.7" font-family="Arial" font-size="14.00">Memory Dump</text>
<text xml:space="preserve" text-anchor="middle" x="783" y="-1101.95" font-family="Arial" font-size="14.00">memory.raw</text>
</g>
<!-- memory_analyze -->
<g id="node8" class="node">
<title>memory_analyze</title>
<path fill="none" stroke="black" d="M856.62,-1017.25C856.62,-1017.25 709.38,-1017.25 709.38,-1017.25 703.38,-1017.25 697.38,-1011.25 697.38,-1005.25 697.38,-1005.25 697.38,-989.75 697.38,-989.75 697.38,-983.75 703.38,-977.75 709.38,-977.75 709.38,-977.75 856.62,-977.75 856.62,-977.75 862.62,-977.75 868.62,-983.75 868.62,-989.75 868.62,-989.75 868.62,-1005.25 868.62,-1005.25 868.62,-1011.25 862.62,-1017.25 856.62,-1017.25"/>
<text xml:space="preserve" text-anchor="middle" x="783" y="-999.95" font-family="Arial" font-size="14.00">analyze_memory_dump()</text>
<text xml:space="preserve" text-anchor="middle" x="783" y="-984.2" font-family="Arial" font-size="14.00">Process Injection</text>
</g>
<!-- memory&#45;&gt;memory_analyze -->
<g id="edge3" class="edge">
<title>memory&#45;&gt;memory_analyze</title>
<path fill="none" stroke="black" d="M783,-1095.14C783,-1077.21 783,-1050.1 783,-1029.15"/>
<polygon fill="black" stroke="black" points="786.5,-1029.16 783,-1019.16 779.5,-1029.16 786.5,-1029.16"/>
</g>
<!-- eventlogs -->
<g id="node3" class="node">
<title>eventlogs</title>
<path fill="none" stroke="black" d="M935.25,-1135C935.25,-1135 866.75,-1135 866.75,-1135 860.75,-1135 854.75,-1129 854.75,-1123 854.75,-1123 854.75,-1107.5 854.75,-1107.5 854.75,-1101.5 860.75,-1095.5 866.75,-1095.5 866.75,-1095.5 935.25,-1095.5 935.25,-1095.5 941.25,-1095.5 947.25,-1101.5 947.25,-1107.5 947.25,-1107.5 947.25,-1123 947.25,-1123 947.25,-1129 941.25,-1135 935.25,-1135"/>
<text xml:space="preserve" text-anchor="middle" x="901" y="-1117.7" font-family="Arial" font-size="14.00">Event Logs</text>
<text xml:space="preserve" text-anchor="middle" x="901" y="-1101.95" font-family="Arial" font-size="14.00">Security.evtx</text>
</g>
<!-- evtparse -->
<g id="node7" class="node">
<title>evtparse</title>
<path fill="none" stroke="black" d="M1005.75,-1017.25C1005.75,-1017.25 898.25,-1017.25 898.25,-1017.25 892.25,-1017.25 886.25,-1011.25 886.25,-1005.25 886.25,-1005.25 886.25,-989.75 886.25,-989.75 886.25,-983.75 892.25,-977.75 898.25,-977.75 898.25,-977.75 1005.75,-977.75 1005.75,-977.75 1011.75,-977.75 1017.75,-983.75 1017.75,-989.75 1017.75,-989.75 1017.75,-1005.25 1017.75,-1005.25 1017.75,-1011.25 1011.75,-1017.25 1005.75,-1017.25"/>
<text xml:space="preserve" text-anchor="middle" x="952" y="-999.95" font-family="Arial" font-size="14.00">parse_event_logs()</text>
<text xml:space="preserve" text-anchor="middle" x="952" y="-984.2" font-family="Arial" font-size="14.00">Auth Events</text>
</g>
<!-- eventlogs&#45;&gt;evtparse -->
<g id="edge4" class="edge">
<title>eventlogs&#45;&gt;evtparse</title>
<path fill="none" stroke="black" d="M909.42,-1095.14C917.47,-1076.87 929.71,-1049.08 939.01,-1027.98"/>
<polygon fill="black" stroke="black" points="942.13,-1029.59 942.96,-1019.03 935.72,-1026.77 942.13,-1029.59"/>
</g>
<!-- registry -->
<g id="node4" class="node">
<title>registry</title>
<path fill="none" stroke="black" d="M1110.5,-1135C1110.5,-1135 977.5,-1135 977.5,-1135 971.5,-1135 965.5,-1129 965.5,-1123 965.5,-1123 965.5,-1107.5 965.5,-1107.5 965.5,-1101.5 971.5,-1095.5 977.5,-1095.5 977.5,-1095.5 1110.5,-1095.5 1110.5,-1095.5 1116.5,-1095.5 1122.5,-1101.5 1122.5,-1107.5 1122.5,-1107.5 1122.5,-1123 1122.5,-1123 1122.5,-1129 1116.5,-1135 1110.5,-1135"/>
<text xml:space="preserve" text-anchor="middle" x="1044" y="-1117.7" font-family="Arial" font-size="14.00">Registry Hives</text>
<text xml:space="preserve" text-anchor="middle" x="1044" y="-1101.95" font-family="Arial" font-size="14.00">SYSTEM, SOFTWARE</text>
</g>
<!-- registry_search -->
<g id="node9" class="node">
<title>registry_search</title>
<path fill="none" stroke="black" d="M1173.75,-1017.25C1173.75,-1017.25 1048.25,-1017.25 1048.25,-1017.25 1042.25,-1017.25 1036.25,-1011.25 1036.25,-1005.25 1036.25,-1005.25 1036.25,-989.75 1036.25,-989.75 1036.25,-983.75 1042.25,-977.75 1048.25,-977.75 1048.25,-977.75 1173.75,-977.75 1173.75,-977.75 1179.75,-977.75 1185.75,-983.75 1185.75,-989.75 1185.75,-989.75 1185.75,-1005.25 1185.75,-1005.25 1185.75,-1011.25 1179.75,-1017.25 1173.75,-1017.25"/>
<text xml:space="preserve" text-anchor="middle" x="1111" y="-999.95" font-family="Arial" font-size="14.00">search_registry_hive()</text>
<text xml:space="preserve" text-anchor="middle" x="1111" y="-984.2" font-family="Arial" font-size="14.00">Persistence</text>
</g>
<!-- registry&#45;&gt;registry_search -->
<g id="edge5" class="edge">
<title>registry&#45;&gt;registry_search</title>
<path fill="none" stroke="black" d="M1055.06,-1095.14C1065.73,-1076.71 1082.02,-1048.57 1094.27,-1027.4"/>
<polygon fill="black" stroke="black" points="1097.18,-1029.36 1099.16,-1018.95 1091.12,-1025.85 1097.18,-1029.36"/>
</g>
<!-- validation -->
<g id="node11" class="node">
<title>validation</title>
<polygon fill="#ff9999" stroke="#ff9999" points="783,-940.75 665.75,-901.25 783,-861.75 900.25,-901.25 783,-940.75"/>
<text xml:space="preserve" text-anchor="middle" x="783" y="-903.7" font-family="Arial" font-size="14.00">Input Validation</text>
<text xml:space="preserve" text-anchor="middle" x="783" y="-887.95" font-family="Arial" font-size="14.00">Path Sanitization</text>
</g>
<!-- prefetch&#45;&gt;validation -->
<g id="edge6" class="edge">
<title>prefetch&#45;&gt;validation</title>
<path fill="none" stroke="black" d="M514.21,-978.33C569.96,-962.55 650.69,-939.7 709.12,-923.16"/>
<polygon fill="black" stroke="black" points="710,-926.55 718.66,-920.46 708.09,-919.81 710,-926.55"/>
</g>
<!-- mft&#45;&gt;validation -->
<g id="edge7" class="edge">
<title>mft&#45;&gt;validation</title>
<path fill="none" stroke="black" d="M641.82,-977.43C666.56,-964.25 699.94,-946.48 728.03,-931.52"/>
<polygon fill="black" stroke="black" points="729.59,-934.65 736.77,-926.86 726.3,-928.48 729.59,-934.65"/>
</g>
<!-- evtparse&#45;&gt;validation -->
<g id="edge8" class="edge">
<title>evtparse&#45;&gt;validation</title>
<path fill="none" stroke="black" d="M917.8,-977.43C894.45,-964.41 863.05,-946.89 836.43,-932.05"/>
<polygon fill="black" stroke="black" points="838.24,-929.05 827.81,-927.24 834.83,-935.17 838.24,-929.05"/>
</g>
<!-- memory_analyze&#45;&gt;validation -->
<g id="edge9" class="edge">
<title>memory_analyze&#45;&gt;validation</title>
<path fill="none" stroke="black" d="M783,-977.43C783,-970.09 783,-961.33 783,-952.42"/>
<polygon fill="black" stroke="black" points="786.5,-952.66 783,-942.66 779.5,-952.66 786.5,-952.66"/>
</g>
<!-- registry_search&#45;&gt;validation -->
<g id="edge10" class="edge">
<title>registry_search&#45;&gt;validation</title>
<path fill="none" stroke="black" d="M1044.23,-977.31C989.7,-961.65 912.74,-939.53 856.47,-923.36"/>
<polygon fill="black" stroke="black" points="857.54,-920.03 846.97,-920.63 855.61,-926.76 857.54,-920.03"/>
</g>
<!-- amcache -->
<g id="node10" class="node">
<title>amcache</title>
<path fill="none" stroke="black" d="M1298.38,-1017.25C1298.38,-1017.25 1215.62,-1017.25 1215.62,-1017.25 1209.62,-1017.25 1203.62,-1011.25 1203.62,-1005.25 1203.62,-1005.25 1203.62,-989.75 1203.62,-989.75 1203.62,-983.75 1209.62,-977.75 1215.62,-977.75 1215.62,-977.75 1298.38,-977.75 1298.38,-977.75 1304.38,-977.75 1310.38,-983.75 1310.38,-989.75 1310.38,-989.75 1310.38,-1005.25 1310.38,-1005.25 1310.38,-1011.25 1304.38,-1017.25 1298.38,-1017.25"/>
<text xml:space="preserve" text-anchor="middle" x="1257" y="-999.95" font-family="Arial" font-size="14.00">get_amcache()</text>
<text xml:space="preserve" text-anchor="middle" x="1257" y="-984.2" font-family="Arial" font-size="14.00">App Execution</text>
</g>
<!-- amcache&#45;&gt;validation -->
<g id="edge11" class="edge">
<title>amcache&#45;&gt;validation</title>
<path fill="none" stroke="black" d="M1203.33,-979.87C1200.52,-979.12 1197.73,-978.41 1195,-977.75 1085.7,-951.3 958.11,-929.25 874.21,-915.94"/>
<polygon fill="black" stroke="black" points="874.84,-912.5 864.42,-914.4 873.75,-919.42 874.84,-912.5"/>
</g>
<!-- whitelist -->
<g id="node12" class="node">
<title>whitelist</title>
<polygon fill="#ff9999" stroke="#ff9999" points="635,-803.25 534.25,-763.75 635,-724.25 735.75,-763.75 635,-803.25"/>
<text xml:space="preserve" text-anchor="middle" x="635" y="-766.2" font-family="Arial" font-size="14.00">Whitelist</text>
<text xml:space="preserve" text-anchor="middle" x="635" y="-750.45" font-family="Arial" font-size="14.00">No Shell Exec</text>
</g>
<!-- validation&#45;&gt;whitelist -->
<g id="edge12" class="edge">
<title>validation&#45;&gt;whitelist</title>
<path fill="none" stroke="black" d="M751.97,-871.84C729,-850.81 697.57,-822.03 673.07,-799.61"/>
<polygon fill="black" stroke="black" points="675.58,-797.16 665.84,-792.98 670.85,-802.32 675.58,-797.16"/>
</g>
<!-- step2 -->
<g id="node14" class="node">
<title>step2</title>
<path fill="none" stroke="black" d="M350.12,-687.25C350.12,-687.25 241.88,-687.25 241.88,-687.25 235.88,-687.25 229.88,-681.25 229.88,-675.25 229.88,-675.25 229.88,-659.75 229.88,-659.75 229.88,-653.75 235.88,-647.75 241.88,-647.75 241.88,-647.75 350.12,-647.75 350.12,-647.75 356.12,-647.75 362.12,-653.75 362.12,-659.75 362.12,-659.75 362.12,-675.25 362.12,-675.25 362.12,-681.25 356.12,-687.25 350.12,-687.25"/>
<text xml:space="preserve" text-anchor="middle" x="296" y="-669.95" font-family="Arial" font-size="14.00">2. Gather Evidence</text>
<text xml:space="preserve" text-anchor="middle" x="296" y="-654.2" font-family="Arial" font-size="14.00">MCP Calls</text>
</g>
<!-- whitelist&#45;&gt;step2 -->
<g id="edge13" class="edge">
<title>whitelist&#45;&gt;step2</title>
<path fill="none" stroke="black" d="M577.11,-746.65C520.91,-731.03 435.26,-707.22 373.27,-689.98"/>
<polygon fill="black" stroke="black" points="374.4,-686.66 363.83,-687.36 372.52,-693.41 374.4,-686.66"/>
</g>
<!-- step1 -->
<g id="node13" class="node">
<title>step1</title>
<polygon fill="#9999ff" stroke="#9999ff" points="350.38,-783.5 219.62,-783.5 219.62,-744 350.38,-744 350.38,-783.5"/>
<text xml:space="preserve" text-anchor="middle" x="285" y="-766.2" font-family="Arial" font-size="14.00">1. Generate/Refine</text>
<text xml:space="preserve" text-anchor="middle" x="285" y="-750.45" font-family="Arial" font-size="14.00">Hypothesis</text>
</g>
<!-- step1&#45;&gt;step2 -->
<g id="edge14" class="edge">
<title>step1&#45;&gt;step2</title>
<path fill="none" stroke="black" d="M287.23,-743.68C288.73,-730.77 290.75,-713.46 292.48,-698.7"/>
<polygon fill="black" stroke="black" points="295.92,-699.39 293.6,-689.05 288.97,-698.57 295.92,-699.39"/>
</g>
<!-- logger -->
<g id="node22" class="node">
<title>logger</title>
<path fill="none" stroke="black" d="M403.38,-285C403.38,-285 308.62,-285 308.62,-285 302.62,-285 296.62,-279 296.62,-273 296.62,-273 296.62,-257.5 296.62,-257.5 296.62,-251.5 302.62,-245.5 308.62,-245.5 308.62,-245.5 403.38,-245.5 403.38,-245.5 409.38,-245.5 415.38,-251.5 415.38,-257.5 415.38,-257.5 415.38,-273 415.38,-273 415.38,-279 409.38,-285 403.38,-285"/>
<text xml:space="preserve" text-anchor="middle" x="356" y="-267.7" font-family="Arial" font-size="14.00">Iteration Logger</text>
<text xml:space="preserve" text-anchor="middle" x="356" y="-251.95" font-family="Arial" font-size="14.00">Structured JSON</text>
</g>
<!-- step1&#45;&gt;logger -->
<g id="edge27" class="edge">
<title>step1&#45;&gt;logger</title>
<path fill="none" stroke="black" d="M320.61,-743.53C369.39,-717.06 451,-672.22 451,-668.5 451,-668.5 451,-668.5 451,-397.5 451,-354.86 417.69,-316.69 390.52,-292.66"/>
<polygon fill="black" stroke="black" points="392.99,-290.17 383.11,-286.34 388.45,-295.5 392.99,-290.17"/>
</g>
<!-- step3 -->
<g id="node15" class="node">
<title>step3</title>
<path fill="none" stroke="black" d="M281.88,-610.75C281.88,-610.75 172.12,-610.75 172.12,-610.75 166.12,-610.75 160.12,-604.75 160.12,-598.75 160.12,-598.75 160.12,-583.25 160.12,-583.25 160.12,-577.25 166.12,-571.25 172.12,-571.25 172.12,-571.25 281.88,-571.25 281.88,-571.25 287.88,-571.25 293.88,-577.25 293.88,-583.25 293.88,-583.25 293.88,-598.75 293.88,-598.75 293.88,-604.75 287.88,-610.75 281.88,-610.75"/>
<text xml:space="preserve" text-anchor="middle" x="227" y="-593.45" font-family="Arial" font-size="14.00">3. Validate Findings</text>
<text xml:space="preserve" text-anchor="middle" x="227" y="-577.7" font-family="Arial" font-size="14.00">Citation&#45;Mismatch</text>
</g>
<!-- step2&#45;&gt;step3 -->
<g id="edge15" class="edge">
<title>step2&#45;&gt;step3</title>
<path fill="none" stroke="black" d="M278.23,-647.31C270.34,-638.8 260.92,-628.62 252.31,-619.33"/>
<polygon fill="black" stroke="black" points="255.1,-617.19 245.74,-612.23 249.96,-621.95 255.1,-617.19"/>
</g>
<!-- step2&#45;&gt;logger -->
<g id="edge28" class="edge">
<title>step2&#45;&gt;logger</title>
<path fill="none" stroke="black" d="M362.36,-649.23C388.77,-638 413,-620.05 413,-592 413,-592 413,-592 413,-397.5 413,-359.56 392.71,-320.17 376.34,-294.57"/>
<polygon fill="black" stroke="black" points="379.37,-292.8 370.93,-286.4 373.54,-296.67 379.37,-292.8"/>
</g>
<!-- step4 -->
<g id="node16" class="node">
<title>step4</title>
<path fill="none" stroke="black" d="M276.62,-494.75C276.62,-494.75 189.38,-494.75 189.38,-494.75 183.38,-494.75 177.38,-488.75 177.38,-482.75 177.38,-482.75 177.38,-467.25 177.38,-467.25 177.38,-461.25 183.38,-455.25 189.38,-455.25 189.38,-455.25 276.62,-455.25 276.62,-455.25 282.62,-455.25 288.62,-461.25 288.62,-467.25 288.62,-467.25 288.62,-482.75 288.62,-482.75 288.62,-488.75 282.62,-494.75 276.62,-494.75"/>
<text xml:space="preserve" text-anchor="middle" x="233" y="-477.45" font-family="Arial" font-size="14.00">4. Identify Gaps</text>
<text xml:space="preserve" text-anchor="middle" x="233" y="-461.7" font-family="Arial" font-size="14.00">Contradictions</text>
</g>
<!-- step3&#45;&gt;step4 -->
<g id="edge16" class="edge">
<title>step3&#45;&gt;step4</title>
<path fill="none" stroke="black" d="M228,-570.92C228.93,-553.33 230.32,-526.92 231.4,-506.42"/>
<polygon fill="black" stroke="black" points="234.88,-506.82 231.91,-496.65 227.89,-506.46 234.88,-506.82"/>
</g>
<!-- cite_check -->
<g id="node18" class="node">
<title>cite_check</title>
<polygon fill="#99ff99" stroke="#99ff99" points="133.88,-493 30.12,-493 30.12,-457 133.88,-457 133.88,-493"/>
<text xml:space="preserve" text-anchor="middle" x="82" y="-469.57" font-family="Arial" font-size="14.00">Citation Check</text>
</g>
<!-- step3&#45;&gt;cite_check -->
<g id="edge20" class="edge">
<title>step3&#45;&gt;cite_check</title>
<path fill="none" stroke="black" d="M189.06,-570.84C175.57,-563.31 160.61,-554.11 148,-544.25 131.92,-531.67 115.94,-515.29 103.74,-501.73"/>
<polygon fill="black" stroke="black" points="106.54,-499.61 97.31,-494.43 101.29,-504.24 106.54,-499.61"/>
</g>
<!-- step3&#45;&gt;logger -->
<g id="edge29" class="edge">
<title>step3&#45;&gt;logger</title>
<path fill="none" stroke="black" d="M266.39,-570.97C277.84,-563.89 289.52,-554.93 298,-544.25 355.84,-471.35 362.38,-437.28 360,-344.25 359.6,-328.58 358.74,-311.15 357.93,-296.75"/>
<polygon fill="black" stroke="black" points="361.43,-296.76 357.35,-286.98 354.45,-297.17 361.43,-296.76"/>
</g>
<!-- step5 -->
<g id="node17" class="node">
<title>step5</title>
<polygon fill="#9999ff" stroke="#9999ff" points="308.62,-418.25 191.38,-418.25 191.38,-378.75 308.62,-378.75 308.62,-418.25"/>
<text xml:space="preserve" text-anchor="middle" x="250" y="-400.95" font-family="Arial" font-size="14.00">5. Decide Action</text>
<text xml:space="preserve" text-anchor="middle" x="250" y="-385.2" font-family="Arial" font-size="14.00">Converge/Refine</text>
</g>
<!-- step4&#45;&gt;step5 -->
<g id="edge17" class="edge">
<title>step4&#45;&gt;step5</title>
<path fill="none" stroke="black" d="M237.38,-454.81C239.12,-447.17 241.17,-438.18 243.11,-429.7"/>
<polygon fill="black" stroke="black" points="246.49,-430.62 245.3,-420.1 239.66,-429.07 246.49,-430.62"/>
</g>
<!-- step4&#45;&gt;logger -->
<g id="edge30" class="edge">
<title>step4&#45;&gt;logger</title>
<path fill="none" stroke="black" d="M274.75,-454.97C290.42,-445.91 307.06,-433.64 318,-418.25 343.95,-381.71 352.24,-329.24 354.85,-296.48"/>
<polygon fill="black" stroke="black" points="358.32,-297.09 355.48,-286.88 351.33,-296.63 358.32,-297.09"/>
</g>
<!-- step5&#45;&gt;step1 -->
<g id="edge18" class="edge">
<title>step5&#45;&gt;step1</title>
<path fill="none" stroke="black" stroke-dasharray="5,2" d="M272.22,-418.67C282,-428.52 292.5,-441.36 298,-455.25 328.14,-531.38 315.78,-590.96 303,-610.75 281.31,-644.34 242.69,-614.16 221,-647.75 211.48,-662.5 214.95,-670.77 221,-687.25 227.76,-705.69 241.24,-722.71 254.09,-735.9"/>
<polygon fill="black" stroke="black" points="251.28,-738.04 260.87,-742.55 256.18,-733.05 251.28,-738.04"/>
<text xml:space="preserve" text-anchor="middle" x="330.87" y="-585.95" font-family="Times,serif" font-size="14.00">refine</text>
</g>
<!-- step5&#45;&gt;logger -->
<g id="edge19" class="edge">
<title>step5&#45;&gt;logger</title>
<path fill="none" stroke="black" d="M245.14,-378.28C243.49,-367.69 243.21,-354.63 248.5,-344.25 260.12,-321.46 281.85,-303.78 302.76,-291.05"/>
<polygon fill="black" stroke="black" points="304.36,-294.17 311.27,-286.14 300.86,-288.11 304.36,-294.17"/>
<text xml:space="preserve" text-anchor="middle" x="273.25" y="-347.45" font-family="Times,serif" font-size="14.00">converge</text>
</g>
<!-- step5&#45;&gt;logger -->
<g id="edge31" class="edge">
<title>step5&#45;&gt;logger</title>
<path fill="none" stroke="black" d="M278.64,-378.31C285.41,-373.06 292.31,-367.06 298,-360.75 315.73,-341.09 331.15,-315.28 341.63,-295.6"/>
<polygon fill="black" stroke="black" points="344.73,-297.21 346.22,-286.72 338.52,-293.99 344.73,-297.21"/>
</g>
<!-- align_check -->
<g id="node19" class="node">
<title>align_check</title>
<polygon fill="#99ff99" stroke="#99ff99" points="134.5,-416.5 19.5,-416.5 19.5,-380.5 134.5,-380.5 134.5,-416.5"/>
<text xml:space="preserve" text-anchor="middle" x="77" y="-393.07" font-family="Arial" font-size="14.00">Claim Alignment</text>
</g>
<!-- cite_check&#45;&gt;align_check -->
<g id="edge21" class="edge">
<title>cite_check&#45;&gt;align_check</title>
<path fill="none" stroke="black" d="M80.84,-456.72C80.27,-448.23 79.57,-437.76 78.92,-428.12"/>
<polygon fill="black" stroke="black" points="82.43,-428.2 78.27,-418.45 75.45,-428.67 82.43,-428.2"/>
</g>
<!-- xref -->
<g id="node20" class="node">
<title>xref</title>
<polygon fill="#99ff99" stroke="#99ff99" points="135,-283.25 17,-283.25 17,-247.25 135,-247.25 135,-283.25"/>
<text xml:space="preserve" text-anchor="middle" x="76" y="-259.82" font-family="Arial" font-size="14.00">Cross&#45;Reference</text>
</g>
<!-- align_check&#45;&gt;xref -->
<g id="edge22" class="edge">
<title>align_check&#45;&gt;xref</title>
<path fill="none" stroke="black" d="M76.87,-380.07C76.7,-358.28 76.41,-320.69 76.22,-294.7"/>
<polygon fill="black" stroke="black" points="79.72,-294.82 76.14,-284.85 72.72,-294.87 79.72,-294.82"/>
</g>
<!-- pattern -->
<g id="node21" class="node">
<title>pattern</title>
<polygon fill="#99ff99" stroke="#99ff99" points="136.12,-206.75 15.88,-206.75 15.88,-170.75 136.12,-170.75 136.12,-206.75"/>
<text xml:space="preserve" text-anchor="middle" x="76" y="-183.32" font-family="Arial" font-size="14.00">Pattern Detection</text>
</g>
<!-- xref&#45;&gt;pattern -->
<g id="edge23" class="edge">
<title>xref&#45;&gt;pattern</title>
<path fill="none" stroke="black" d="M76,-246.97C76,-238.57 76,-228.24 76,-218.68"/>
<polygon fill="black" stroke="black" points="79.5,-218.71 76,-208.71 72.5,-218.71 79.5,-218.71"/>
</g>
<!-- pattern&#45;&gt;step4 -->
<g id="edge24" class="edge">
<title>pattern&#45;&gt;step4</title>
<path fill="none" stroke="black" d="M105.07,-207.01C118.88,-216.66 134.42,-229.89 144,-245.5 185.11,-312.51 145.79,-348.47 182,-418.25 187.35,-428.55 195.09,-438.4 202.94,-446.87"/>
<polygon fill="black" stroke="black" points="200.18,-449.05 209.68,-453.76 205.19,-444.16 200.18,-449.05"/>
</g>
<!-- trace -->
<g id="node23" class="node">
<title>trace</title>
<path fill="none" stroke="black" d="M428.5,-208.5C428.5,-208.5 283.5,-208.5 283.5,-208.5 277.5,-208.5 271.5,-202.5 271.5,-196.5 271.5,-196.5 271.5,-181 271.5,-181 271.5,-175 277.5,-169 283.5,-169 283.5,-169 428.5,-169 428.5,-169 434.5,-169 440.5,-175 440.5,-181 440.5,-181 440.5,-196.5 440.5,-196.5 440.5,-202.5 434.5,-208.5 428.5,-208.5"/>
<text xml:space="preserve" text-anchor="middle" x="356" y="-191.2" font-family="Arial" font-size="14.00">Execution Trace</text>
<text xml:space="preserve" text-anchor="middle" x="356" y="-175.45" font-family="Arial" font-size="14.00">Finding→Tool→Evidence</text>
</g>
<!-- logger&#45;&gt;trace -->
<g id="edge32" class="edge">
<title>logger&#45;&gt;trace</title>
<path fill="none" stroke="black" d="M356,-245.06C356,-237.5 356,-228.63 356,-220.24"/>
<polygon fill="black" stroke="black" points="359.5,-220.38 356,-210.38 352.5,-220.38 359.5,-220.38"/>
</g>
<!-- audit -->
<g id="node24" class="node">
<title>audit</title>
<path fill="none" stroke="black" d="M403.38,-132C403.38,-132 308.62,-132 308.62,-132 302.62,-132 296.62,-126 296.62,-120 296.62,-120 296.62,-104.5 296.62,-104.5 296.62,-98.5 302.62,-92.5 308.62,-92.5 308.62,-92.5 403.38,-92.5 403.38,-92.5 409.38,-92.5 415.38,-98.5 415.38,-104.5 415.38,-104.5 415.38,-120 415.38,-120 415.38,-126 409.38,-132 403.38,-132"/>
<text xml:space="preserve" text-anchor="middle" x="356" y="-114.7" font-family="Arial" font-size="14.00">Audit Trail</text>
<text xml:space="preserve" text-anchor="middle" x="356" y="-98.95" font-family="Arial" font-size="14.00">Timestamps, IDs</text>
</g>
<!-- trace&#45;&gt;audit -->
<g id="edge33" class="edge">
<title>trace&#45;&gt;audit</title>
<path fill="none" stroke="black" d="M356,-168.56C356,-161 356,-152.13 356,-143.74"/>
<polygon fill="black" stroke="black" points="359.5,-143.88 356,-133.88 352.5,-143.88 359.5,-143.88"/>
</g>
<!-- report -->
<g id="node25" class="node">
<title>report</title>
<path fill="none" stroke="black" d="M401.12,-55.5C401.12,-55.5 310.88,-55.5 310.88,-55.5 304.88,-55.5 298.88,-49.5 298.88,-43.5 298.88,-43.5 298.88,-28 298.88,-28 298.88,-22 304.88,-16 310.88,-16 310.88,-16 401.12,-16 401.12,-16 407.12,-16 413.12,-22 413.12,-28 413.12,-28 413.12,-43.5 413.12,-43.5 413.12,-49.5 407.12,-55.5 401.12,-55.5"/>
<text xml:space="preserve" text-anchor="middle" x="356" y="-38.2" font-family="Arial" font-size="14.00">Final Report</text>
<text xml:space="preserve" text-anchor="middle" x="356" y="-22.45" font-family="Arial" font-size="14.00">MITRE ATT&amp;CK</text>
</g>
<!-- audit&#45;&gt;report -->
<g id="edge34" class="edge">
<title>audit&#45;&gt;report</title>
<path fill="none" stroke="black" d="M356,-92.06C356,-84.5 356,-75.63 356,-67.24"/>
<polygon fill="black" stroke="black" points="359.5,-67.38 356,-57.38 352.5,-67.38 359.5,-67.38"/>
</g>
<!-- llm -->
<g id="node26" class="node">
<title>llm</title>
<ellipse fill="#ffddaa" stroke="#ffddaa" cx="194" cy="-901.25" rx="90.33" ry="27.93"/>
<text xml:space="preserve" text-anchor="middle" x="194" y="-903.7" font-family="Arial" font-size="14.00">AWS Bedrock</text>
<text xml:space="preserve" text-anchor="middle" x="194" y="-887.95" font-family="Arial" font-size="14.00">Claude Sonnet 4.5</text>
</g>
<!-- llm&#45;&gt;step1 -->
<g id="edge25" class="edge">
<title>llm&#45;&gt;step1</title>
<path fill="none" stroke="black" d="M211.98,-873.48C227.57,-850.26 250.07,-816.77 265.96,-793.1"/>
<polygon fill="black" stroke="black" points="268.82,-795.13 271.49,-784.87 263,-791.22 268.82,-795.13"/>
</g>
<!-- llm&#45;&gt;step3 -->
<g id="edge26" class="edge">
<title>llm&#45;&gt;step3</title>
<path fill="none" stroke="black" d="M192.54,-873C190.65,-826.33 189.34,-728.33 206,-647.75 207.79,-639.12 210.71,-630.05 213.82,-621.8"/>
<polygon fill="black" stroke="black" points="217.04,-623.15 217.52,-612.57 210.55,-620.55 217.04,-623.15"/>
</g>
</g>
</svg>
